<svg width="25" height="25" viewBox="0 0 25 25" fill="none" xmlns="http://www.w3.org/2000/svg">
<g id="Frame">
<path id="Vector" opacity="0.5" d="M5.80525 6.47852C5.65188 6.4784 5.50217 6.52531 5.37629 6.61291C5.2504 6.70051 5.1544 6.8246 5.10122 6.96845C5.04804 7.11229 5.04024 7.26899 5.07886 7.41741C5.11749 7.56583 5.20069 7.69884 5.31725 7.79852L12.3172 13.7985C12.5972 14.0385 13.0122 14.0385 13.2932 13.7985L20.2932 7.79852C20.4098 7.69884 20.493 7.56583 20.5316 7.41741C20.5703 7.26899 20.5624 7.11229 20.5093 6.96845C20.4561 6.8246 20.3601 6.70051 20.2342 6.61291C20.1083 6.52531 19.9586 6.4784 19.8052 6.47852H5.80525Z" fill="#FF5630"/>
<path id="Vector_2" fill-rule="evenodd" clip-rule="evenodd" d="M5.23462 10.7405C5.29875 10.6657 5.37699 10.6042 5.46488 10.5597C5.55277 10.5151 5.64858 10.4883 5.74684 10.4808C5.84509 10.4732 5.94387 10.4852 6.03752 10.5158C6.13117 10.5465 6.21785 10.5953 6.29262 10.6595L12.8046 16.2405L19.3166 10.6595C19.3913 10.5946 19.4781 10.5452 19.5719 10.514C19.6658 10.4828 19.7649 10.4705 19.8636 10.4777C19.9622 10.485 20.0585 10.5117 20.1468 10.5563C20.235 10.6009 20.3136 10.6626 20.378 10.7377C20.4424 10.8128 20.4912 10.8999 20.5218 10.994C20.5523 11.0881 20.564 11.1873 20.5561 11.2859C20.5481 11.3845 20.5208 11.4805 20.4756 11.5685C20.4303 11.6565 20.3682 11.7347 20.2926 11.7985L13.2926 17.7985C13.1567 17.915 12.9836 17.979 12.8046 17.979C12.6256 17.979 12.4525 17.915 12.3166 17.7985L5.31662 11.7985C5.2418 11.7344 5.18035 11.6561 5.13578 11.5682C5.09121 11.4804 5.0644 11.3846 5.05688 11.2863C5.04935 11.188 5.06127 11.0893 5.09194 10.9956C5.12261 10.902 5.17143 10.8153 5.23562 10.7405" fill="#FF5630"/>
</g>
</svg>
