<svg width="25" height="21" viewBox="0 0 25 21" fill="none" xmlns="http://www.w3.org/2000/svg">
<g id="Frame">
<g id="Group">
<g id="Clip path group">
<mask id="mask0_1_5748" style="mask-type:luminance" maskUnits="userSpaceOnUse" x="0" y="1" width="25" height="19">
<g id="iconifyReact530">
<path id="Vector" d="M0.685547 1.22852H24.6855V19.2285H0.685547V1.22852Z" fill="white"/>
</g>
</mask>
<g mask="url(#mask0_1_5748)">
<g id="Group_2">
<path id="Vector_2" d="M0.685547 1.22852H24.6855V19.2285H0.685547V1.22852Z" fill="white"/>
<path id="Vector_3" fill-rule="evenodd" clip-rule="evenodd" d="M0.685547 1.22852V19.2285H24.6855V1.22852H0.685547Z" fill="#2E42A5"/>
<g id="Mask group">
<mask id="mask1_1_5748" style="mask-type:luminance" maskUnits="userSpaceOnUse" x="0" y="1" width="25" height="19">
<g id="Group_3">
<path id="Vector_4" fill-rule="evenodd" clip-rule="evenodd" d="M0.685547 1.22852V19.2285H24.6855V1.22852H0.685547Z" fill="white"/>
</g>
</mask>
<g mask="url(#mask1_1_5748)">
<g id="Group_4">
<path id="Vector_5" d="M-1.98657 17.9418L3.29418 20.1761L24.8057 3.65657L27.5912 0.33707L21.9437 -0.40918L13.1702 6.70907L6.10818 11.5061L-1.98657 17.9418Z" fill="white"/>
<path id="Vector_6" d="M-1.26367 19.5075L1.42808 20.8035L26.5913 0.0292969H22.8136L-1.26367 19.5075Z" fill="#F50100"/>
<path id="Vector_7" d="M27.357 17.9418L22.0755 20.1761L0.565547 3.65657L-2.2207 0.33707L3.4268 -0.40918L12.2003 6.70907L19.2623 11.5061L27.357 17.9418Z" fill="white"/>
<path id="Vector_8" d="M27.178 19.0656L24.487 20.3616L13.7725 11.4666L10.5955 10.4736L-2.48828 0.348633H1.29022L14.3657 10.2336L17.839 11.4246L27.178 19.0656Z" fill="#F50100"/>
<path id="Vector_9" fill-rule="evenodd" clip-rule="evenodd" d="M15.5183 -0.271484H9.85133V7.22852H-0.794922V13.2285H9.85133V20.7285H15.5183V13.2285H26.2058V7.22852H15.5183V-0.271484Z" fill="#F50100"/>
<g id="Mask group_2">
<mask id="mask2_1_5748" style="mask-type:luminance" maskUnits="userSpaceOnUse" x="-1" y="-1" width="28" height="22">
<g id="Group_5">
<path id="Vector_10" fill-rule="evenodd" clip-rule="evenodd" d="M15.5183 -0.271484H9.85133V7.22852H-0.794922V13.2285H9.85133V20.7285H15.5183V13.2285H26.2058V7.22852H15.5183V-0.271484Z" fill="white"/>
</g>
</mask>
<g mask="url(#mask2_1_5748)">
<path id="Vector_11" d="M9.85133 -0.271484V-1.77148H8.35133V-0.271484H9.85133ZM15.5183 -0.271484H17.0183V-1.77148H15.5183V-0.271484ZM9.85133 7.22852V8.72852H11.3513V7.22852H9.85133ZM-0.794922 7.22852V5.72852H-2.29492V7.22852H-0.794922ZM-0.794922 13.2285H-2.29492V14.7285H-0.794922V13.2285ZM9.85133 13.2285H11.3513V11.7285H9.85133V13.2285ZM9.85133 20.7285H8.35133V22.2285H9.85133V20.7285ZM15.5183 20.7285V22.2285H17.0183V20.7285H15.5183ZM15.5183 13.2285V11.7285H14.0183V13.2285H15.5183ZM26.2058 13.2285V14.7285H27.7058V13.2285H26.2058ZM26.2058 7.22852H27.7058V5.72852H26.2058V7.22852ZM15.5183 7.22852H14.0183V8.72852H15.5183V7.22852ZM9.85133 1.22852H15.5183V-1.77148H9.85133V1.22852ZM11.3513 7.22852V-0.271484H8.35133V7.22852H11.3513ZM-0.794922 8.72852H9.85133V5.72852H-0.794922V8.72852ZM0.705078 13.2285V7.22852H-2.29492V13.2285H0.705078ZM9.85133 11.7285H-0.794922V14.7285H9.85133V11.7285ZM11.3513 20.7285V13.2285H8.35133V20.7285H11.3513ZM15.5183 19.2285H9.85133V22.2285H15.5183V19.2285ZM14.0183 13.2285V20.7285H17.0183V13.2285H14.0183ZM26.2058 11.7285H15.5183V14.7285H26.2058V11.7285ZM24.7058 7.22852V13.2285H27.7058V7.22852H24.7058ZM15.5183 8.72852H26.2058V5.72852H15.5183V8.72852ZM14.0183 -0.271484V7.22852H17.0183V-0.271484H14.0183Z" fill="white"/>
</g>
</g>
</g>
</g>
</g>
</g>
</g>
</g>
</g>
</g>
</svg>
