<svg width="61" height="37" viewBox="0 0 61 37" fill="none" xmlns="http://www.w3.org/2000/svg">
<g id="SVG" clip-path="url(#clip0_1_4804)">
<g id="SvgjsG8574">
<g id="SvgjsG8584">
<g id="SvgjsG8585">
<g id="Clip path group">
<mask id="mask0_1_4804" style="mask-type:luminance" maskUnits="userSpaceOnUse" x="2" y="-2" width="65" height="41">
<g id="gridRectMaskts9215kx">
<path id="SvgjsRect8582" d="M66.8125 -1.77148H2.8125V38.2285H66.8125V-1.77148Z" fill="white"/>
</g>
</mask>
<g mask="url(#mask0_1_4804)">
<path id="SvgjsPath8593" d="M11.1738 34.2295V29.2295C11.1738 28.2295 12.1738 27.2295 13.1738 27.2295C13.8344 27.2295 14.4949 28.2295 14.4949 29.2295V34.2295C14.4949 35.2295 13.4949 36.2295 12.4949 36.2295C11.8344 36.2295 11.1738 35.2295 11.1738 34.2295Z" fill="url(#paint0_linear_1_4804)"/>
</g>
</g>
<g id="Clip path group_2">
<mask id="mask1_1_4804" style="mask-type:luminance" maskUnits="userSpaceOnUse" x="2" y="-2" width="65" height="41">
<g id="gridRectMaskts9215kx_2">
<path id="SvgjsRect8582_2" d="M66.8125 -1.77148H2.8125V38.2285H66.8125V-1.77148Z" fill="white"/>
</g>
</mask>
<g mask="url(#mask1_1_4804)">
<path id="SvgjsPath8598" d="M16.0586 34.2293V19.7793C16.0586 18.7793 17.0586 17.7793 18.0586 17.7793C18.7191 17.7793 19.3797 18.7793 19.3797 19.7793V34.2293C19.3797 35.2293 18.3797 36.2293 17.3797 36.2293C16.7191 36.2293 16.0586 35.2293 16.0586 34.2293Z" fill="url(#paint1_linear_1_4804)"/>
</g>
</g>
<g id="Clip path group_3">
<mask id="mask2_1_4804" style="mask-type:luminance" maskUnits="userSpaceOnUse" x="2" y="-2" width="65" height="41">
<g id="gridRectMaskts9215kx_3">
<path id="SvgjsRect8582_3" d="M66.8125 -1.77148H2.8125V38.2285H66.8125V-1.77148Z" fill="white"/>
</g>
</mask>
<g mask="url(#mask2_1_4804)">
<path id="SvgjsPath8603" d="M20.9414 34.2299V9.87988C20.9414 8.87988 21.9414 7.87988 22.9414 7.87988C23.6019 7.87988 24.2625 8.87988 24.2625 9.87988V34.2299C24.2625 35.2299 23.2625 36.2299 22.2625 36.2299C21.6019 36.2299 20.9414 35.2299 20.9414 34.2299Z" fill="url(#paint2_linear_1_4804)"/>
</g>
</g>
<g id="Clip path group_4">
<mask id="mask3_1_4804" style="mask-type:luminance" maskUnits="userSpaceOnUse" x="2" y="-2" width="65" height="41">
<g id="gridRectMaskts9215kx_4">
<path id="SvgjsRect8582_4" d="M66.8125 -1.77148H2.8125V38.2285H66.8125V-1.77148Z" fill="white"/>
</g>
</mask>
<g mask="url(#mask3_1_4804)">
<path id="SvgjsPath8608" d="M25.8262 34.2299V23.3799C25.8262 22.3799 26.8262 21.3799 27.8262 21.3799C28.4867 21.3799 29.1473 22.3799 29.1473 23.3799V34.2299C29.1473 35.2299 28.1473 36.2299 27.1473 36.2299C26.4867 36.2299 25.8262 35.2299 25.8262 34.2299Z" fill="url(#paint3_linear_1_4804)"/>
</g>
</g>
<g id="Clip path group_5">
<mask id="mask4_1_4804" style="mask-type:luminance" maskUnits="userSpaceOnUse" x="2" y="-2" width="65" height="41">
<g id="gridRectMaskts9215kx_5">
<path id="SvgjsRect8582_5" d="M66.8125 -1.77148H2.8125V38.2285H66.8125V-1.77148Z" fill="white"/>
</g>
</mask>
<g mask="url(#mask4_1_4804)">
<path id="SvgjsPath8613" d="M30.7109 34.2299V25.6299C30.7109 24.6299 31.7109 23.6299 32.7109 23.6299C33.3715 23.6299 34.032 24.6299 34.032 25.6299V34.2299C34.032 35.2299 33.032 36.2299 32.032 36.2299C31.3715 36.2299 30.7109 35.2299 30.7109 34.2299Z" fill="url(#paint4_linear_1_4804)"/>
</g>
</g>
<g id="Clip path group_6">
<mask id="mask5_1_4804" style="mask-type:luminance" maskUnits="userSpaceOnUse" x="2" y="-2" width="65" height="41">
<g id="gridRectMaskts9215kx_6">
<path id="SvgjsRect8582_6" d="M66.8125 -1.77148H2.8125V38.2285H66.8125V-1.77148Z" fill="white"/>
</g>
</mask>
<g mask="url(#mask5_1_4804)">
<path id="SvgjsPath8618" d="M35.5938 34.2295V22.4795C35.5938 21.4795 36.5938 20.4795 37.5938 20.4795C38.2543 20.4795 38.9148 21.4795 38.9148 22.4795V34.2295C38.9148 35.2295 37.9148 36.2295 36.9148 36.2295C36.2543 36.2295 35.5938 35.2295 35.5938 34.2295Z" fill="url(#paint5_linear_1_4804)"/>
</g>
</g>
<g id="Clip path group_7">
<mask id="mask6_1_4804" style="mask-type:luminance" maskUnits="userSpaceOnUse" x="2" y="-2" width="65" height="41">
<g id="gridRectMaskts9215kx_7">
<path id="SvgjsRect8582_7" d="M66.8125 -1.77148H2.8125V38.2285H66.8125V-1.77148Z" fill="white"/>
</g>
</mask>
<g mask="url(#mask6_1_4804)">
<path id="SvgjsPath8623" d="M40.4785 34.2295V15.7295C40.4785 14.7295 41.4785 13.7295 42.4785 13.7295C43.1391 13.7295 43.7996 14.7295 43.7996 15.7295V34.2295C43.7996 35.2295 42.7996 36.2295 41.7996 36.2295C41.1391 36.2295 40.4785 35.2295 40.4785 34.2295Z" fill="url(#paint6_linear_1_4804)"/>
</g>
</g>
<g id="Clip path group_8">
<mask id="mask7_1_4804" style="mask-type:luminance" maskUnits="userSpaceOnUse" x="2" y="-2" width="65" height="41">
<g id="gridRectMaskts9215kx_8">
<path id="SvgjsRect8582_8" d="M66.8125 -1.77148H2.8125V38.2285H66.8125V-1.77148Z" fill="white"/>
</g>
</mask>
<g mask="url(#mask7_1_4804)">
<path id="SvgjsPath8628" d="M45.3613 34.2293V17.5293C45.3613 16.5293 46.3613 15.5293 47.3613 15.5293C48.0219 15.5293 48.6824 16.5293 48.6824 17.5293V34.2293C48.6824 35.2293 47.6824 36.2293 46.6824 36.2293C46.0219 36.2293 45.3613 35.2293 45.3613 34.2293Z" fill="url(#paint7_linear_1_4804)"/>
</g>
</g>
<g id="Clip path group_9">
<mask id="mask8_1_4804" style="mask-type:luminance" maskUnits="userSpaceOnUse" x="2" y="-2" width="65" height="41">
<g id="gridRectMaskts9215kx_9">
<path id="SvgjsRect8582_9" d="M66.8125 -1.77148H2.8125V38.2285H66.8125V-1.77148Z" fill="white"/>
</g>
</mask>
<g mask="url(#mask8_1_4804)">
<path id="SvgjsPath8633" d="M50.2461 34.2293V33.2793C50.2461 32.2793 51.2461 31.2793 52.2461 31.2793C52.9066 31.2793 53.5672 32.2793 53.5672 33.2793V34.2293C53.5672 35.2293 52.5672 36.2293 51.5672 36.2293C50.9066 36.2293 50.2461 35.2293 50.2461 34.2293Z" fill="url(#paint8_linear_1_4804)"/>
</g>
</g>
<g id="Clip path group_10">
<mask id="mask9_1_4804" style="mask-type:luminance" maskUnits="userSpaceOnUse" x="2" y="-2" width="65" height="41">
<g id="gridRectMaskts9215kx_10">
<path id="SvgjsRect8582_10" d="M66.8125 -1.77148H2.8125V38.2285H66.8125V-1.77148Z" fill="white"/>
</g>
</mask>
<g mask="url(#mask9_1_4804)">
<path id="SvgjsPath8638" d="M55.1289 34.2293V26.5293C55.1289 25.5293 56.1289 24.5293 57.1289 24.5293C57.7894 24.5293 58.45 25.5293 58.45 26.5293V34.2293C58.45 35.2293 57.45 36.2293 56.45 36.2293C55.7894 36.2293 55.1289 35.2293 55.1289 34.2293Z" fill="url(#paint9_linear_1_4804)"/>
</g>
</g>
</g>
</g>
</g>
</g>
<defs>
<linearGradient id="paint0_linear_1_4804" x1="11.1738" y1="36.2295" x2="14.4949" y2="36.2295" gradientUnits="userSpaceOnUse">
<stop stop-color="#61F3F3"/>
<stop offset="1" stop-color="#00B8D9"/>
</linearGradient>
<linearGradient id="paint1_linear_1_4804" x1="16.0586" y1="36.2293" x2="19.3797" y2="36.2293" gradientUnits="userSpaceOnUse">
<stop stop-color="#61F3F3"/>
<stop offset="1" stop-color="#00B8D9"/>
</linearGradient>
<linearGradient id="paint2_linear_1_4804" x1="20.9414" y1="36.2299" x2="24.2625" y2="36.2299" gradientUnits="userSpaceOnUse">
<stop stop-color="#61F3F3"/>
<stop offset="1" stop-color="#00B8D9"/>
</linearGradient>
<linearGradient id="paint3_linear_1_4804" x1="25.8262" y1="36.2299" x2="29.1473" y2="36.2299" gradientUnits="userSpaceOnUse">
<stop stop-color="#61F3F3"/>
<stop offset="1" stop-color="#00B8D9"/>
</linearGradient>
<linearGradient id="paint4_linear_1_4804" x1="30.7109" y1="36.2299" x2="34.032" y2="36.2299" gradientUnits="userSpaceOnUse">
<stop stop-color="#61F3F3"/>
<stop offset="1" stop-color="#00B8D9"/>
</linearGradient>
<linearGradient id="paint5_linear_1_4804" x1="35.5938" y1="36.2295" x2="38.9148" y2="36.2295" gradientUnits="userSpaceOnUse">
<stop stop-color="#61F3F3"/>
<stop offset="1" stop-color="#00B8D9"/>
</linearGradient>
<linearGradient id="paint6_linear_1_4804" x1="40.4785" y1="36.2295" x2="43.7996" y2="36.2295" gradientUnits="userSpaceOnUse">
<stop stop-color="#61F3F3"/>
<stop offset="1" stop-color="#00B8D9"/>
</linearGradient>
<linearGradient id="paint7_linear_1_4804" x1="45.3613" y1="36.2293" x2="48.6824" y2="36.2293" gradientUnits="userSpaceOnUse">
<stop stop-color="#61F3F3"/>
<stop offset="1" stop-color="#00B8D9"/>
</linearGradient>
<linearGradient id="paint8_linear_1_4804" x1="50.2461" y1="36.2293" x2="53.5672" y2="36.2293" gradientUnits="userSpaceOnUse">
<stop stop-color="#61F3F3"/>
<stop offset="1" stop-color="#00B8D9"/>
</linearGradient>
<linearGradient id="paint9_linear_1_4804" x1="55.1289" y1="36.2293" x2="58.45" y2="36.2293" gradientUnits="userSpaceOnUse">
<stop stop-color="#61F3F3"/>
<stop offset="1" stop-color="#00B8D9"/>
</linearGradient>
<clipPath id="clip0_1_4804">
<rect width="60" height="36" fill="white" transform="translate(0.8125 0.228516)"/>
</clipPath>
</defs>
</svg>
