<svg width="61" height="37" viewBox="0 0 61 37" fill="none" xmlns="http://www.w3.org/2000/svg">
<g id="SVG" clip-path="url(#clip0_1_4876)">
<g id="SvgjsG8666">
<g id="SvgjsG8676">
<g id="SvgjsG8677">
<g id="Clip path group">
<mask id="mask0_1_4876" style="mask-type:luminance" maskUnits="userSpaceOnUse" x="2" y="-2" width="65" height="41">
<g id="gridRectMaskgemfawgr">
<path id="SvgjsRect8674" d="M66.6738 -1.77148H2.67383V38.2285H66.6738V-1.77148Z" fill="white"/>
</g>
</mask>
<g mask="url(#mask0_1_4876)">
<path id="SvgjsPath8685" d="M11.0352 34.2297V32.4697C11.0352 31.4697 12.0352 30.4697 13.0352 30.4697C13.6957 30.4697 14.3562 31.4697 14.3562 32.4697V34.2297C14.3562 35.2297 13.3562 36.2297 12.3562 36.2297C11.6957 36.2297 11.0352 35.2297 11.0352 34.2297Z" fill="url(#paint0_linear_1_4876)"/>
</g>
</g>
<g id="Clip path group_2">
<mask id="mask1_1_4876" style="mask-type:luminance" maskUnits="userSpaceOnUse" x="2" y="-2" width="65" height="41">
<g id="gridRectMaskgemfawgr_2">
<path id="SvgjsRect8674_2" d="M66.6738 -1.77148H2.67383V38.2285H66.6738V-1.77148Z" fill="white"/>
</g>
</mask>
<g mask="url(#mask1_1_4876)">
<path id="SvgjsPath8690" d="M15.9199 34.23V31.75C15.9199 30.75 16.9199 29.75 17.9199 29.75C18.5805 29.75 19.241 30.75 19.241 31.75V34.23C19.241 35.23 18.241 36.23 17.241 36.23C16.5805 36.23 15.9199 35.23 15.9199 34.23Z" fill="url(#paint1_linear_1_4876)"/>
</g>
</g>
<g id="Clip path group_3">
<mask id="mask2_1_4876" style="mask-type:luminance" maskUnits="userSpaceOnUse" x="2" y="-2" width="65" height="41">
<g id="gridRectMaskgemfawgr_3">
<path id="SvgjsRect8674_3" d="M66.6738 -1.77148H2.67383V38.2285H66.6738V-1.77148Z" fill="white"/>
</g>
</mask>
<g mask="url(#mask2_1_4876)">
<path id="SvgjsPath8695" d="M20.8027 34.2292V15.9092C20.8027 14.9092 21.8027 13.9092 22.8027 13.9092C23.4633 13.9092 24.1238 14.9092 24.1238 15.9092V34.2292C24.1238 35.2292 23.1238 36.2292 22.1238 36.2292C21.4633 36.2292 20.8027 35.2292 20.8027 34.2292Z" fill="url(#paint2_linear_1_4876)"/>
</g>
</g>
<g id="Clip path group_4">
<mask id="mask3_1_4876" style="mask-type:luminance" maskUnits="userSpaceOnUse" x="2" y="-2" width="65" height="41">
<g id="gridRectMaskgemfawgr_4">
<path id="SvgjsRect8674_4" d="M66.6738 -1.77148H2.67383V38.2285H66.6738V-1.77148Z" fill="white"/>
</g>
</mask>
<g mask="url(#mask3_1_4876)">
<path id="SvgjsPath8700" d="M25.6873 34.2295V32.4695C25.6873 31.4695 26.6873 30.4695 27.6873 30.4695C28.3478 30.4695 29.0083 31.4695 29.0083 32.4695V34.2295C29.0083 35.2295 28.0083 36.2295 27.0083 36.2295C26.3478 36.2295 25.6873 35.2295 25.6873 34.2295Z" fill="url(#paint3_linear_1_4876)"/>
</g>
</g>
<g id="Clip path group_5">
<mask id="mask4_1_4876" style="mask-type:luminance" maskUnits="userSpaceOnUse" x="2" y="-2" width="65" height="41">
<g id="gridRectMaskgemfawgr_5">
<path id="SvgjsRect8674_5" d="M66.6738 -1.77148H2.67383V38.2285H66.6738V-1.77148Z" fill="white"/>
</g>
</mask>
<g mask="url(#mask4_1_4876)">
<path id="SvgjsPath8705" d="M30.5723 34.23V26.71C30.5723 25.71 31.5723 24.71 32.5723 24.71C33.2328 24.71 33.8934 25.71 33.8934 26.71V34.23C33.8934 35.23 32.8934 36.23 31.8934 36.23C31.2328 36.23 30.5723 35.23 30.5723 34.23Z" fill="url(#paint4_linear_1_4876)"/>
</g>
</g>
<g id="Clip path group_6">
<mask id="mask5_1_4876" style="mask-type:luminance" maskUnits="userSpaceOnUse" x="2" y="-2" width="65" height="41">
<g id="gridRectMaskgemfawgr_6">
<path id="SvgjsRect8674_6" d="M66.6738 -1.77148H2.67383V38.2285H66.6738V-1.77148Z" fill="white"/>
</g>
</mask>
<g mask="url(#mask5_1_4876)">
<path id="SvgjsPath8710" d="M35.4551 34.2298V11.5898C35.4551 10.5898 36.4551 9.58984 37.4551 9.58984C38.1156 9.58984 38.7762 10.5898 38.7762 11.5898V34.2298C38.7762 35.2298 37.7762 36.2298 36.7762 36.2298C36.1156 36.2298 35.4551 35.2298 35.4551 34.2298Z" fill="url(#paint5_linear_1_4876)"/>
</g>
</g>
<g id="Clip path group_7">
<mask id="mask6_1_4876" style="mask-type:luminance" maskUnits="userSpaceOnUse" x="2" y="-2" width="65" height="41">
<g id="gridRectMaskgemfawgr_7">
<path id="SvgjsRect8674_7" d="M66.6738 -1.77148H2.67383V38.2285H66.6738V-1.77148Z" fill="white"/>
</g>
</mask>
<g mask="url(#mask6_1_4876)">
<path id="SvgjsPath8715" d="M40.3398 34.2297V32.4697C40.3398 31.4697 41.3398 30.4697 42.3398 30.4697C43.0004 30.4697 43.6609 31.4697 43.6609 32.4697V34.2297C43.6609 35.2297 42.6609 36.2297 41.6609 36.2297C41.0004 36.2297 40.3398 35.2297 40.3398 34.2297Z" fill="url(#paint6_linear_1_4876)"/>
</g>
</g>
<g id="Clip path group_8">
<mask id="mask7_1_4876" style="mask-type:luminance" maskUnits="userSpaceOnUse" x="2" y="-2" width="65" height="41">
<g id="gridRectMaskgemfawgr_8">
<path id="SvgjsRect8674_8" d="M66.6738 -1.77148H2.67383V38.2285H66.6738V-1.77148Z" fill="white"/>
</g>
</mask>
<g mask="url(#mask7_1_4876)">
<path id="SvgjsPath8720" d="M45.2227 34.2297V14.4697C45.2227 13.4697 46.2227 12.4697 47.2227 12.4697C47.8832 12.4697 48.5437 13.4697 48.5437 14.4697V34.2297C48.5437 35.2297 47.5437 36.2297 46.5437 36.2297C45.8832 36.2297 45.2227 35.2297 45.2227 34.2297Z" fill="url(#paint7_linear_1_4876)"/>
</g>
</g>
<g id="Clip path group_9">
<mask id="mask8_1_4876" style="mask-type:luminance" maskUnits="userSpaceOnUse" x="2" y="-2" width="65" height="41">
<g id="gridRectMaskgemfawgr_9">
<path id="SvgjsRect8674_9" d="M66.6738 -1.77148H2.67383V38.2285H66.6738V-1.77148Z" fill="white"/>
</g>
</mask>
<g mask="url(#mask8_1_4876)">
<path id="SvgjsPath8725" d="M50.1074 34.2294V5.10938C50.1074 4.10938 51.1074 3.10938 52.1074 3.10938C52.768 3.10938 53.4285 4.10938 53.4285 5.10938V34.2294C53.4285 35.2294 52.4285 36.2294 51.4285 36.2294C50.768 36.2294 50.1074 35.2294 50.1074 34.2294Z" fill="url(#paint8_linear_1_4876)"/>
</g>
</g>
<g id="Clip path group_10">
<mask id="mask9_1_4876" style="mask-type:luminance" maskUnits="userSpaceOnUse" x="2" y="-2" width="65" height="41">
<g id="gridRectMaskgemfawgr_10">
<path id="SvgjsRect8674_10" d="M66.6738 -1.77148H2.67383V38.2285H66.6738V-1.77148Z" fill="white"/>
</g>
</mask>
<g mask="url(#mask9_1_4876)">
<path id="SvgjsPath8730" d="M54.9902 34.2292V15.9092C54.9902 14.9092 55.9902 13.9092 56.9902 13.9092C57.6508 13.9092 58.3113 14.9092 58.3113 15.9092V34.2292C58.3113 35.2292 57.3113 36.2292 56.3113 36.2292C55.6508 36.2292 54.9902 35.2292 54.9902 34.2292Z" fill="url(#paint9_linear_1_4876)"/>
</g>
</g>
</g>
</g>
</g>
</g>
<defs>
<linearGradient id="paint0_linear_1_4876" x1="11.0352" y1="36.2297" x2="14.3562" y2="36.2297" gradientUnits="userSpaceOnUse">
<stop stop-color="#FFD666"/>
<stop offset="1" stop-color="#FFAB00"/>
</linearGradient>
<linearGradient id="paint1_linear_1_4876" x1="15.9199" y1="36.23" x2="19.241" y2="36.23" gradientUnits="userSpaceOnUse">
<stop stop-color="#FFD666"/>
<stop offset="1" stop-color="#FFAB00"/>
</linearGradient>
<linearGradient id="paint2_linear_1_4876" x1="20.8027" y1="36.2292" x2="24.1238" y2="36.2292" gradientUnits="userSpaceOnUse">
<stop stop-color="#FFD666"/>
<stop offset="1" stop-color="#FFAB00"/>
</linearGradient>
<linearGradient id="paint3_linear_1_4876" x1="25.6873" y1="36.2295" x2="29.0083" y2="36.2295" gradientUnits="userSpaceOnUse">
<stop stop-color="#FFD666"/>
<stop offset="1" stop-color="#FFAB00"/>
</linearGradient>
<linearGradient id="paint4_linear_1_4876" x1="30.5723" y1="36.23" x2="33.8934" y2="36.23" gradientUnits="userSpaceOnUse">
<stop stop-color="#FFD666"/>
<stop offset="1" stop-color="#FFAB00"/>
</linearGradient>
<linearGradient id="paint5_linear_1_4876" x1="35.4551" y1="36.2298" x2="38.7762" y2="36.2298" gradientUnits="userSpaceOnUse">
<stop stop-color="#FFD666"/>
<stop offset="1" stop-color="#FFAB00"/>
</linearGradient>
<linearGradient id="paint6_linear_1_4876" x1="40.3398" y1="36.2297" x2="43.6609" y2="36.2297" gradientUnits="userSpaceOnUse">
<stop stop-color="#FFD666"/>
<stop offset="1" stop-color="#FFAB00"/>
</linearGradient>
<linearGradient id="paint7_linear_1_4876" x1="45.2227" y1="36.2297" x2="48.5437" y2="36.2297" gradientUnits="userSpaceOnUse">
<stop stop-color="#FFD666"/>
<stop offset="1" stop-color="#FFAB00"/>
</linearGradient>
<linearGradient id="paint8_linear_1_4876" x1="50.1074" y1="36.2294" x2="53.4285" y2="36.2294" gradientUnits="userSpaceOnUse">
<stop stop-color="#FFD666"/>
<stop offset="1" stop-color="#FFAB00"/>
</linearGradient>
<linearGradient id="paint9_linear_1_4876" x1="54.9902" y1="36.2292" x2="58.3113" y2="36.2292" gradientUnits="userSpaceOnUse">
<stop stop-color="#FFD666"/>
<stop offset="1" stop-color="#FFAB00"/>
</linearGradient>
<clipPath id="clip0_1_4876">
<rect width="60" height="36" fill="white" transform="translate(0.673828 0.228516)"/>
</clipPath>
</defs>
</svg>
