<svg width="61" height="37" viewBox="0 0 61 37" fill="none" xmlns="http://www.w3.org/2000/svg">
<g id="SVG" clip-path="url(#clip0_1_4732)">
<g id="SvgjsG8482">
<g id="SvgjsG8492">
<g id="SvgjsG8493">
<g id="Clip path group">
<mask id="mask0_1_4732" style="mask-type:luminance" maskUnits="userSpaceOnUse" x="2" y="-2" width="65" height="41">
<g id="gridRectMask3rceywubg">
<path id="SvgjsRect8490" d="M66.9434 -1.77148H2.94336V38.2285H66.9434V-1.77148Z" fill="white"/>
</g>
</mask>
<g mask="url(#mask0_1_4732)">
<path id="SvgjsPath8501" d="M11.3047 35.9795C11.3047 34.9795 12.3047 33.9795 13.3047 33.9795C13.9652 33.9795 14.6258 34.9795 14.6258 35.9795C14.6258 36.1045 13.6258 36.2295 12.6258 36.2295C11.9652 36.2295 11.3047 36.1045 11.3047 35.9795Z" fill="url(#paint0_linear_1_4732)"/>
</g>
</g>
<g id="Clip path group_2">
<mask id="mask1_1_4732" style="mask-type:luminance" maskUnits="userSpaceOnUse" x="2" y="-2" width="65" height="41">
<g id="gridRectMask3rceywubg_2">
<path id="SvgjsRect8490_2" d="M66.9434 -1.77148H2.94336V38.2285H66.9434V-1.77148Z" fill="white"/>
</g>
</mask>
<g mask="url(#mask1_1_4732)">
<path id="SvgjsPath8506" d="M16.1895 34.2299V30.1299C16.1895 29.1299 17.1895 28.1299 18.1895 28.1299C18.85 28.1299 19.5105 29.1299 19.5105 30.1299V34.2299C19.5105 35.2299 18.5105 36.2299 17.5105 36.2299C16.85 36.2299 16.1895 35.2299 16.1895 34.2299Z" fill="url(#paint1_linear_1_4732)"/>
</g>
</g>
<g id="Clip path group_3">
<mask id="mask2_1_4732" style="mask-type:luminance" maskUnits="userSpaceOnUse" x="2" y="-2" width="65" height="41">
<g id="gridRectMask3rceywubg_3">
<path id="SvgjsRect8490_3" d="M66.9434 -1.77148H2.94336V38.2285H66.9434V-1.77148Z" fill="white"/>
</g>
</mask>
<g mask="url(#mask2_1_4732)">
<path id="SvgjsPath8511" d="M21.0723 34.2291V32.8291C21.0723 31.8291 22.0723 30.8291 23.0723 30.8291C23.7328 30.8291 24.3934 31.8291 24.3934 32.8291V34.2291C24.3934 35.2291 23.3934 36.2291 22.3934 36.2291C21.7328 36.2291 21.0723 35.2291 21.0723 34.2291Z" fill="url(#paint2_linear_1_4732)"/>
</g>
</g>
<g id="Clip path group_4">
<mask id="mask3_1_4732" style="mask-type:luminance" maskUnits="userSpaceOnUse" x="2" y="-2" width="65" height="41">
<g id="gridRectMask3rceywubg_4">
<path id="SvgjsRect8490_4" d="M66.9434 -1.77148H2.94336V38.2285H66.9434V-1.77148Z" fill="white"/>
</g>
</mask>
<g mask="url(#mask3_1_4732)">
<path id="SvgjsPath8516" d="M25.957 34.2295V15.2795C25.957 14.2795 26.957 13.2795 27.957 13.2795C28.6176 13.2795 29.2781 14.2795 29.2781 15.2795V34.2295C29.2781 35.2295 28.2781 36.2295 27.2781 36.2295C26.6176 36.2295 25.957 35.2295 25.957 34.2295Z" fill="url(#paint3_linear_1_4732)"/>
</g>
</g>
<g id="Clip path group_5">
<mask id="mask4_1_4732" style="mask-type:luminance" maskUnits="userSpaceOnUse" x="2" y="-2" width="65" height="41">
<g id="gridRectMask3rceywubg_5">
<path id="SvgjsRect8490_5" d="M66.9434 -1.77148H2.94336V38.2285H66.9434V-1.77148Z" fill="white"/>
</g>
</mask>
<g mask="url(#mask4_1_4732)">
<path id="SvgjsPath8521" d="M30.8418 34.2299V7.62988C30.8418 6.62988 31.8418 5.62988 32.8418 5.62988C33.5023 5.62988 34.1629 6.62988 34.1629 7.62988V34.2299C34.1629 35.2299 33.1629 36.2299 32.1629 36.2299C31.5023 36.2299 30.8418 35.2299 30.8418 34.2299Z" fill="url(#paint4_linear_1_4732)"/>
</g>
</g>
<g id="Clip path group_6">
<mask id="mask5_1_4732" style="mask-type:luminance" maskUnits="userSpaceOnUse" x="2" y="-2" width="65" height="41">
<g id="gridRectMask3rceywubg_6">
<path id="SvgjsRect8490_6" d="M66.9434 -1.77148H2.94336V38.2285H66.9434V-1.77148Z" fill="white"/>
</g>
</mask>
<g mask="url(#mask5_1_4732)">
<path id="SvgjsPath8526" d="M35.7246 34.2295V33.2795C35.7246 32.2795 36.7246 31.2795 37.7246 31.2795C38.3852 31.2795 39.0457 32.2795 39.0457 33.2795V34.2295C39.0457 35.2295 38.0457 36.2295 37.0457 36.2295C36.3852 36.2295 35.7246 35.2295 35.7246 34.2295Z" fill="url(#paint5_linear_1_4732)"/>
</g>
</g>
<g id="Clip path group_7">
<mask id="mask6_1_4732" style="mask-type:luminance" maskUnits="userSpaceOnUse" x="2" y="-2" width="65" height="41">
<g id="gridRectMask3rceywubg_7">
<path id="SvgjsRect8490_7" d="M66.9434 -1.77148H2.94336V38.2285H66.9434V-1.77148Z" fill="white"/>
</g>
</mask>
<g mask="url(#mask6_1_4732)">
<path id="SvgjsPath8531" d="M40.6094 34.2297V20.6797C40.6094 19.6797 41.6094 18.6797 42.6094 18.6797C43.2699 18.6797 43.9305 19.6797 43.9305 20.6797V34.2297C43.9305 35.2297 42.9305 36.2297 41.9305 36.2297C41.2699 36.2297 40.6094 35.2297 40.6094 34.2297Z" fill="url(#paint6_linear_1_4732)"/>
</g>
</g>
<g id="Clip path group_8">
<mask id="mask7_1_4732" style="mask-type:luminance" maskUnits="userSpaceOnUse" x="2" y="-2" width="65" height="41">
<g id="gridRectMask3rceywubg_8">
<path id="SvgjsRect8490_8" d="M66.9434 -1.77148H2.94336V38.2285H66.9434V-1.77148Z" fill="white"/>
</g>
</mask>
<g mask="url(#mask7_1_4732)">
<path id="SvgjsPath8536" d="M45.4922 34.2291V21.5791C45.4922 20.5791 46.4922 19.5791 47.4922 19.5791C48.1527 19.5791 48.8133 20.5791 48.8133 21.5791V34.2291C48.8133 35.2291 47.8133 36.2291 46.8133 36.2291C46.1527 36.2291 45.4922 35.2291 45.4922 34.2291Z" fill="url(#paint7_linear_1_4732)"/>
</g>
</g>
<g id="Clip path group_9">
<mask id="mask8_1_4732" style="mask-type:luminance" maskUnits="userSpaceOnUse" x="2" y="-2" width="65" height="41">
<g id="gridRectMask3rceywubg_9">
<path id="SvgjsRect8490_9" d="M66.9434 -1.77148H2.94336V38.2285H66.9434V-1.77148Z" fill="white"/>
</g>
</mask>
<g mask="url(#mask8_1_4732)">
<path id="SvgjsPath8541" d="M50.377 34.2291V26.0791C50.377 25.0791 51.377 24.0791 52.377 24.0791C53.0375 24.0791 53.698 25.0791 53.698 26.0791V34.2291C53.698 35.2291 52.698 36.2291 51.698 36.2291C51.0375 36.2291 50.377 35.2291 50.377 34.2291Z" fill="url(#paint8_linear_1_4732)"/>
</g>
</g>
<g id="Clip path group_10">
<mask id="mask9_1_4732" style="mask-type:luminance" maskUnits="userSpaceOnUse" x="2" y="-2" width="65" height="41">
<g id="gridRectMask3rceywubg_10">
<path id="SvgjsRect8490_10" d="M66.9434 -1.77148H2.94336V38.2285H66.9434V-1.77148Z" fill="white"/>
</g>
</mask>
<g mask="url(#mask9_1_4732)">
<path id="SvgjsPath8546" d="M55.2598 34.2295V29.2295C55.2598 28.2295 56.2598 27.2295 57.2598 27.2295C57.9203 27.2295 58.5809 28.2295 58.5809 29.2295V34.2295C58.5809 35.2295 57.5809 36.2295 56.5809 36.2295C55.9203 36.2295 55.2598 35.2295 55.2598 34.2295Z" fill="url(#paint9_linear_1_4732)"/>
</g>
</g>
</g>
</g>
</g>
</g>
<defs>
<linearGradient id="paint0_linear_1_4732" x1="11.3047" y1="36.2295" x2="14.6258" y2="36.2295" gradientUnits="userSpaceOnUse">
<stop stop-color="#5BE49B"/>
<stop offset="1" stop-color="#00A76F"/>
</linearGradient>
<linearGradient id="paint1_linear_1_4732" x1="16.1895" y1="36.2299" x2="19.5105" y2="36.2299" gradientUnits="userSpaceOnUse">
<stop stop-color="#5BE49B"/>
<stop offset="1" stop-color="#00A76F"/>
</linearGradient>
<linearGradient id="paint2_linear_1_4732" x1="21.0723" y1="36.2291" x2="24.3934" y2="36.2291" gradientUnits="userSpaceOnUse">
<stop stop-color="#5BE49B"/>
<stop offset="1" stop-color="#00A76F"/>
</linearGradient>
<linearGradient id="paint3_linear_1_4732" x1="25.957" y1="36.2295" x2="29.2781" y2="36.2295" gradientUnits="userSpaceOnUse">
<stop stop-color="#5BE49B"/>
<stop offset="1" stop-color="#00A76F"/>
</linearGradient>
<linearGradient id="paint4_linear_1_4732" x1="30.8418" y1="36.2299" x2="34.1629" y2="36.2299" gradientUnits="userSpaceOnUse">
<stop stop-color="#5BE49B"/>
<stop offset="1" stop-color="#00A76F"/>
</linearGradient>
<linearGradient id="paint5_linear_1_4732" x1="35.7246" y1="36.2295" x2="39.0457" y2="36.2295" gradientUnits="userSpaceOnUse">
<stop stop-color="#5BE49B"/>
<stop offset="1" stop-color="#00A76F"/>
</linearGradient>
<linearGradient id="paint6_linear_1_4732" x1="40.6094" y1="36.2297" x2="43.9305" y2="36.2297" gradientUnits="userSpaceOnUse">
<stop stop-color="#5BE49B"/>
<stop offset="1" stop-color="#00A76F"/>
</linearGradient>
<linearGradient id="paint7_linear_1_4732" x1="45.4922" y1="36.2291" x2="48.8133" y2="36.2291" gradientUnits="userSpaceOnUse">
<stop stop-color="#5BE49B"/>
<stop offset="1" stop-color="#00A76F"/>
</linearGradient>
<linearGradient id="paint8_linear_1_4732" x1="50.377" y1="36.2291" x2="53.698" y2="36.2291" gradientUnits="userSpaceOnUse">
<stop stop-color="#5BE49B"/>
<stop offset="1" stop-color="#00A76F"/>
</linearGradient>
<linearGradient id="paint9_linear_1_4732" x1="55.2598" y1="36.2295" x2="58.5809" y2="36.2295" gradientUnits="userSpaceOnUse">
<stop stop-color="#5BE49B"/>
<stop offset="1" stop-color="#00A76F"/>
</linearGradient>
<clipPath id="clip0_1_4732">
<rect width="60" height="36" fill="white" transform="translate(0.943359 0.228516)"/>
</clipPath>
</defs>
</svg>
