<svg width="40" height="40" viewBox="0 0 40 40" fill="none" xmlns="http://www.w3.org/2000/svg">
<g id="SVG">
<g id="Group">
<path id="Vector" fill-rule="evenodd" clip-rule="evenodd" d="M14.31 22.3104L14.082 22.7243L13.8498 23.1433L13.6274 23.5413L13.4498 23.8572L13.279 24.1585L13.0832 24.5009L12.9582 24.7176L12.779 25.0254L12.6931 25.1714L12.5825 25.3579L12.5024 25.4918L12.3995 25.6621L12.3253 25.7838L12.207 25.975L12.1394 26.0828L12.0743 26.1853L12.0116 26.2826L11.9515 26.3748L11.8938 26.4616L11.8207 26.5694L11.7688 26.6441L11.7356 26.691L11.7036 26.7357L11.6575 26.7982L11.6281 26.837L11.5862 26.8909L11.5728 26.9076C10.7322 27.9522 9.81531 28.743 8.68766 29.1994C6.31688 30.3136 3.36969 30.3657 1.09375 28.9881L6.74586 19.2473L6.96461 19.1129C10.8128 16.8219 12.6741 19.2002 14.31 22.3104Z" fill="url(#paint0_linear_1_5798)"/>
<path id="Vector_2" fill-rule="evenodd" clip-rule="evenodd" d="M34.7117 17.9473C31.0969 11.6227 27.3602 5.6639 23.0677 14.4048C22.4805 15.5286 22.0525 17.7124 21.0938 17.7124V17.7013C20.135 17.7013 19.707 15.5175 19.1199 14.3937C14.8273 5.65281 11.0906 11.6116 7.47578 17.9362C7.20367 18.4133 6.94234 18.8684 6.71875 19.2641C15.003 14.0198 14.3055 29.863 21.0938 29.9889V30C27.8821 29.8741 27.1845 14.0309 35.4688 19.275C35.2453 18.8795 34.9839 18.4244 34.7117 17.9473Z" fill="url(#paint1_linear_1_5798)"/>
<path id="Vector_3" fill-rule="evenodd" clip-rule="evenodd" d="M35.1562 30C37.2273 30 38.9062 28.321 38.9062 26.25C38.9062 24.179 37.2273 22.5 35.1562 22.5C33.0852 22.5 31.4062 24.179 31.4062 26.25C31.4062 28.321 33.0852 30 35.1562 30Z" fill="url(#paint2_linear_1_5798)"/>
</g>
</g>
<defs>
<linearGradient id="paint0_linear_1_5798" x1="1322.72" y1="135.851" x2="720.373" y2="674.97" gradientUnits="userSpaceOnUse">
<stop stop-color="#007867"/>
<stop offset="1" stop-color="#00A76F"/>
</linearGradient>
<linearGradient id="paint1_linear_1_5798" x1="1444.22" y1="10" x2="1444.22" y2="2010" gradientUnits="userSpaceOnUse">
<stop stop-color="#5BE49B"/>
<stop offset="1" stop-color="#00A76F"/>
</linearGradient>
<linearGradient id="paint2_linear_1_5798" x1="406.406" y1="22.5" x2="406.406" y2="772.5" gradientUnits="userSpaceOnUse">
<stop stop-color="#5BE49B"/>
<stop offset="1" stop-color="#00A76F"/>
</linearGradient>
</defs>
</svg>
