<svg width="25" height="25" viewBox="0 0 25 25" fill="none" xmlns="http://www.w3.org/2000/svg">
<g id="Img">
<path id="Vector" opacity="0.5" d="M19.4356 9.22852V9.93252C19.4356 10.7775 19.6756 11.6035 20.1276 12.3065L21.2356 14.0295C22.2466 15.6035 21.4746 17.7425 19.7156 18.2395C15.1194 19.5415 10.2519 19.5415 5.65561 18.2395C3.89661 17.7425 3.12461 15.6035 4.13561 14.0295L5.24361 12.3065C5.69718 11.5979 5.93772 10.7739 5.93661 9.93252V9.22852C5.93661 5.36252 8.95861 2.22852 12.6856 2.22852C16.4126 2.22852 19.4356 5.36252 19.4356 9.22852Z" fill="#637381"/>
<path id="Vector_2" d="M13.4347 6.22852C13.4347 6.0296 13.3557 5.83884 13.2151 5.69819C13.0744 5.55753 12.8836 5.47852 12.6847 5.47852C12.4858 5.47852 12.2951 5.55753 12.1544 5.69819C12.0138 5.83884 11.9347 6.0296 11.9347 6.22852V10.2285C11.9347 10.4274 12.0138 10.6182 12.1544 10.7588C12.2951 10.8995 12.4858 10.9785 12.6847 10.9785C12.8836 10.9785 13.0744 10.8995 13.2151 10.7588C13.3557 10.6182 13.4347 10.4274 13.4347 10.2285V6.22852ZM7.92773 18.7735C8.25448 19.7776 8.89062 20.6526 9.74503 21.2731C10.5994 21.8935 11.6283 22.2277 12.6842 22.2277C13.7402 22.2277 14.769 21.8935 15.6234 21.2731C16.4779 20.6526 17.114 19.7776 17.4407 18.7735C14.2957 19.3635 11.0737 19.3635 7.92773 18.7735Z" fill="#637381"/>
</g>
</svg>
