<svg width="33" height="33" viewBox="0 0 33 33" fill="none" xmlns="http://www.w3.org/2000/svg">
<g id="Img" clip-path="url(#clip0_1_5785)">
<path id="Vector" opacity="0.5" fill-rule="evenodd" clip-rule="evenodd" d="M18.3306 26.2064C18.7302 26.1882 19.1564 25.9901 20.0079 25.5943C20.8594 25.1985 21.2847 25.0008 21.5571 24.7066C21.9185 24.3156 22.1099 23.7971 22.089 23.2651C22.0803 23.0232 22.0029 22.7714 21.8568 22.4214C21.7471 22.1696 21.7034 21.8939 21.7299 21.6205C21.7564 21.3471 21.8523 21.085 22.0083 20.8589C22.1706 20.6356 22.3865 20.4569 22.6362 20.3393C22.886 20.2217 23.1613 20.169 23.4368 20.1861C23.8183 20.2051 24.0818 20.1906 24.3148 20.1177C24.8242 19.9575 25.2498 19.6028 25.499 19.1305C25.6854 18.777 25.7282 18.3116 25.8133 17.3821C25.8994 16.4522 25.9417 15.9881 25.8233 15.6076C25.665 15.1011 25.3102 14.6793 24.8371 14.435C24.622 14.3233 24.3646 14.2654 23.9865 14.2183C23.4288 14.1501 22.938 13.8202 22.7028 13.3142C22.4676 12.8082 22.5318 12.2203 22.8387 11.7513C23.0469 11.4306 23.1686 11.1965 23.2228 10.9596C23.2811 10.7032 23.288 10.4378 23.2431 10.1788C23.1982 9.91968 23.1024 9.67208 22.9612 9.45024C22.7471 9.1153 22.3646 8.84757 21.5982 8.31388C20.8318 7.78018 20.4498 7.51337 20.059 7.42705C19.5383 7.31286 18.9924 7.41002 18.5409 7.696C18.3349 7.82702 18.1541 8.01916 17.9226 8.32304C17.7581 8.5449 17.5401 8.72161 17.2891 8.83676C17.038 8.95192 16.7619 9.0018 16.4864 8.98178C15.9277 8.93272 15.4495 8.5871 15.1952 8.08995C15.0214 7.75168 14.8792 7.53108 14.7 7.36848C14.3084 7.01012 13.7886 6.82169 13.255 6.84584C12.8554 6.86396 12.4292 7.06207 11.5777 7.45787C10.7262 7.85367 10.3 8.05178 10.0285 8.34557C9.66713 8.73656 9.47579 9.25508 9.49661 9.78711C9.50536 10.029 9.58231 10.2799 9.72888 10.6308C9.94595 11.1453 9.90138 11.735 9.57736 12.1933C9.41511 12.4166 9.19912 12.5953 8.94941 12.7129C8.6997 12.8305 8.42434 12.8832 8.14885 12.8661C7.76732 12.8471 7.50384 12.8615 7.2709 12.9345C6.76078 13.0945 6.335 13.4501 6.08665 13.9217C5.90029 14.2752 5.85747 14.7406 5.77233 15.6701C5.68629 16.6 5.64396 17.0641 5.76239 17.4446C5.84114 17.6955 5.96883 17.9284 6.13809 18.1296C6.30736 18.3309 6.51484 18.4966 6.74854 18.6172C6.96368 18.7289 7.22107 18.7868 7.59912 18.8339C8.15686 18.9021 8.64763 19.232 8.88283 19.738C9.11804 20.244 9.05383 20.8319 8.74695 21.3009C8.53871 21.6216 8.41705 21.8557 8.36286 22.0926C8.30459 22.349 8.2977 22.6144 8.3426 22.8734C8.3875 23.1325 8.4833 23.3801 8.62445 23.602C8.83859 23.9369 9.22108 24.2046 9.98744 24.7383C10.7538 25.272 11.1359 25.5388 11.5267 25.6252C12.0484 25.7391 12.5939 25.6424 13.0448 25.3562C13.2507 25.2252 13.4316 25.033 13.6631 24.7292C13.8276 24.5073 14.0455 24.3306 14.2966 24.2154C14.5476 24.1003 14.8237 24.0504 15.0992 24.0704C15.3725 24.097 15.6345 24.1929 15.8604 24.349C16.0864 24.505 16.2688 24.7161 16.3904 24.9623C16.5642 25.3005 16.7065 25.5211 16.8857 25.6837C17.0804 25.8615 17.3082 25.9991 17.5562 26.0888C17.8041 26.1785 18.0673 26.2184 18.3306 26.2064Z" fill="#637381"/>
<path id="Vector_2" d="M13.0516 17.7997C12.3532 16.2971 13.0149 14.5085 14.5284 13.805C16.0428 13.101 17.8359 13.7486 18.5343 15.2512C19.2327 16.7538 18.5719 18.542 17.0575 19.2459C15.5431 19.9498 13.7501 19.3023 13.0516 17.7997Z" fill="#637381"/>
</g>
<defs>
<clipPath id="clip0_1_5785">
<rect width="24" height="24" fill="white" transform="translate(32.1855 22.1387) rotate(155.07)"/>
</clipPath>
</defs>
</svg>
