<svg width="25" height="25" viewBox="0 0 25 25" fill="none" xmlns="http://www.w3.org/2000/svg">
<g id="Frame">
<path id="Vector" opacity="0.5" d="M5.08454 17.979C4.93118 17.9791 4.78147 17.9322 4.65558 17.8446C4.5297 17.757 4.4337 17.6329 4.38052 17.4891C4.32734 17.3452 4.31954 17.1885 4.35816 17.0401C4.39679 16.8917 4.47999 16.7587 4.59654 16.659L11.5965 10.659C11.7325 10.5425 11.9056 10.4785 12.0845 10.4785C12.2635 10.4785 12.4366 10.5425 12.5725 10.659L19.5725 16.659C19.6891 16.7587 19.7723 16.8917 19.8109 17.0401C19.8495 17.1885 19.8417 17.3452 19.7886 17.4891C19.7354 17.6329 19.6394 17.757 19.5135 17.8446C19.3876 17.9322 19.2379 17.9791 19.0845 17.979H5.08454Z" fill="#22C55E"/>
<path id="Vector_2" fill-rule="evenodd" clip-rule="evenodd" d="M4.51343 13.717C4.57755 13.7918 4.6558 13.8532 4.74369 13.8978C4.83158 13.9424 4.92739 13.9692 5.02564 13.9767C5.1239 13.9842 5.22267 13.9723 5.31632 13.9417C5.40997 13.911 5.49666 13.8622 5.57143 13.798L12.0834 8.21697L18.5954 13.798C18.6696 13.8659 18.7566 13.9182 18.8514 13.9518C18.9462 13.9854 19.0467 13.9995 19.1471 13.9935C19.2474 13.9874 19.3456 13.9613 19.4356 13.9165C19.5257 13.8718 19.6058 13.8094 19.6712 13.7331C19.7367 13.6568 19.7861 13.5681 19.8166 13.4723C19.8471 13.3765 19.858 13.2755 19.8487 13.1754C19.8394 13.0753 19.8101 12.9781 19.7624 12.8895C19.7148 12.801 19.6498 12.7229 19.5714 12.66L12.5714 6.65997C12.4355 6.54351 12.2624 6.47949 12.0834 6.47949C11.9044 6.47949 11.7313 6.54351 11.5954 6.65997L4.59543 12.66C4.44461 12.7895 4.35137 12.9735 4.33618 13.1717C4.32099 13.3699 4.3851 13.566 4.51443 13.717" fill="#22C55E"/>
</g>
</svg>
