<svg width="25" height="25" viewBox="0 0 25 25" fill="none" xmlns="http://www.w3.org/2000/svg">
<g id="Img">
<path id="Vector" opacity="0.4" d="M15.6855 9.22852C17.3424 9.22852 18.6855 7.88537 18.6855 6.22852C18.6855 4.57166 17.3424 3.22852 15.6855 3.22852C14.0287 3.22852 12.6855 4.57166 12.6855 6.22852C12.6855 7.88537 14.0287 9.22852 15.6855 9.22852Z" fill="#637381"/>
<path id="Vector_2" opacity="0.4" d="M16.6855 20.2285C19.447 20.2285 21.6855 18.8854 21.6855 17.2285C21.6855 15.5717 19.447 14.2285 16.6855 14.2285C13.9241 14.2285 11.6855 15.5717 11.6855 17.2285C11.6855 18.8854 13.9241 20.2285 16.6855 20.2285Z" fill="#637381"/>
<path id="Vector_3" d="M9.6875 10.2285C11.8966 10.2285 13.6875 8.43765 13.6875 6.22852C13.6875 4.01938 11.8966 2.22852 9.6875 2.22852C7.47836 2.22852 5.6875 4.01938 5.6875 6.22852C5.6875 8.43765 7.47836 10.2285 9.6875 10.2285Z" fill="#637381"/>
<path id="Vector_4" d="M9.6875 21.2295C13.5535 21.2295 16.6875 19.4386 16.6875 17.2295C16.6875 15.0204 13.5535 13.2295 9.6875 13.2295C5.82151 13.2295 2.6875 15.0204 2.6875 17.2295C2.6875 19.4386 5.82151 21.2295 9.6875 21.2295Z" fill="#637381"/>
</g>
</svg>
